<mxfile host="Electron" agent="Mozilla/5.0 (X11; Linux x86_64) AppleWebKit/537.36 (KHTML, like Gecko) draw.io/26.0.9 Chrome/128.0.6613.186 Electron/32.2.5 Safari/537.36" version="26.0.9">
  <diagram name="Page-1" id="i1E7Vj1hTysUiNosoibD">
    <mxGraphModel dx="989" dy="579" grid="1" gridSize="10" guides="1" tooltips="1" connect="1" arrows="1" fold="1" page="1" pageScale="1" pageWidth="850" pageHeight="1100" math="0" shadow="0">
      <root>
        <mxCell id="0" />
        <mxCell id="1" parent="0" />
        <mxCell id="dneLV3trufRBMjY-YP0T-7" value="" style="group" vertex="1" connectable="0" parent="1">
          <mxGeometry x="310" y="300" width="60" height="60" as="geometry" />
        </mxCell>
        <mxCell id="dneLV3trufRBMjY-YP0T-4" value="root" style="rounded=0;whiteSpace=wrap;html=1;fillColor=#f8cecc;strokeColor=#b85450;" vertex="1" parent="dneLV3trufRBMjY-YP0T-7">
          <mxGeometry x="10" y="20" width="40" height="40" as="geometry" />
        </mxCell>
        <mxCell id="dneLV3trufRBMjY-YP0T-5" value="TREE&lt;div&gt;&lt;br&gt;&lt;/div&gt;" style="text;html=1;align=center;verticalAlign=middle;resizable=0;points=[];autosize=1;strokeColor=none;fillColor=none;" vertex="1" parent="dneLV3trufRBMjY-YP0T-7">
          <mxGeometry width="60" height="40" as="geometry" />
        </mxCell>
        <mxCell id="dneLV3trufRBMjY-YP0T-12" value="" style="group" vertex="1" connectable="0" parent="1">
          <mxGeometry x="360" y="380" width="120" height="60" as="geometry" />
        </mxCell>
        <mxCell id="dneLV3trufRBMjY-YP0T-1" value="key" style="rounded=0;whiteSpace=wrap;html=1;fillColor=#d5e8d4;strokeColor=#82b366;" vertex="1" parent="dneLV3trufRBMjY-YP0T-12">
          <mxGeometry x="-40" y="20" width="40" height="40" as="geometry" />
        </mxCell>
        <mxCell id="dneLV3trufRBMjY-YP0T-2" value="left" style="rounded=0;whiteSpace=wrap;html=1;fillColor=#f8cecc;strokeColor=#b85450;" vertex="1" parent="dneLV3trufRBMjY-YP0T-12">
          <mxGeometry y="20" width="40" height="40" as="geometry" />
        </mxCell>
        <mxCell id="dneLV3trufRBMjY-YP0T-3" value="right" style="rounded=0;whiteSpace=wrap;html=1;fillColor=#f8cecc;strokeColor=#b85450;" vertex="1" parent="dneLV3trufRBMjY-YP0T-12">
          <mxGeometry x="40" y="20" width="40" height="40" as="geometry" />
        </mxCell>
        <mxCell id="dneLV3trufRBMjY-YP0T-8" value="" style="group" vertex="1" connectable="0" parent="dneLV3trufRBMjY-YP0T-12">
          <mxGeometry x="30" width="60" height="60" as="geometry" />
        </mxCell>
        <mxCell id="dneLV3trufRBMjY-YP0T-10" value="&lt;div&gt;NODE&lt;/div&gt;&lt;div&gt;&lt;br&gt;&lt;/div&gt;" style="text;html=1;align=center;verticalAlign=middle;resizable=0;points=[];autosize=1;strokeColor=none;fillColor=none;" vertex="1" parent="dneLV3trufRBMjY-YP0T-8">
          <mxGeometry width="60" height="40" as="geometry" />
        </mxCell>
        <mxCell id="dneLV3trufRBMjY-YP0T-16" value="" style="group" vertex="1" connectable="0" parent="1">
          <mxGeometry x="250" y="490" width="120" height="60" as="geometry" />
        </mxCell>
        <mxCell id="dneLV3trufRBMjY-YP0T-17" value="key" style="rounded=0;whiteSpace=wrap;html=1;fillColor=#d5e8d4;strokeColor=#82b366;" vertex="1" parent="dneLV3trufRBMjY-YP0T-16">
          <mxGeometry y="20" width="40" height="40" as="geometry" />
        </mxCell>
        <mxCell id="dneLV3trufRBMjY-YP0T-18" value="left" style="rounded=0;whiteSpace=wrap;html=1;fillColor=#f8cecc;strokeColor=#b85450;" vertex="1" parent="dneLV3trufRBMjY-YP0T-16">
          <mxGeometry x="40" y="20" width="40" height="40" as="geometry" />
        </mxCell>
        <mxCell id="dneLV3trufRBMjY-YP0T-19" value="right" style="rounded=0;whiteSpace=wrap;html=1;fillColor=#f8cecc;strokeColor=#b85450;" vertex="1" parent="dneLV3trufRBMjY-YP0T-16">
          <mxGeometry x="80" y="20" width="40" height="40" as="geometry" />
        </mxCell>
        <mxCell id="dneLV3trufRBMjY-YP0T-20" value="" style="group" vertex="1" connectable="0" parent="dneLV3trufRBMjY-YP0T-16">
          <mxGeometry x="30" width="60" height="60" as="geometry" />
        </mxCell>
        <mxCell id="dneLV3trufRBMjY-YP0T-21" value="&lt;div&gt;NODE&lt;/div&gt;&lt;div&gt;&lt;br&gt;&lt;/div&gt;" style="text;html=1;align=center;verticalAlign=middle;resizable=0;points=[];autosize=1;strokeColor=none;fillColor=none;" vertex="1" parent="dneLV3trufRBMjY-YP0T-20">
          <mxGeometry width="60" height="40" as="geometry" />
        </mxCell>
        <mxCell id="dneLV3trufRBMjY-YP0T-22" value="" style="group" vertex="1" connectable="0" parent="1">
          <mxGeometry x="450" y="490" width="120" height="60" as="geometry" />
        </mxCell>
        <mxCell id="dneLV3trufRBMjY-YP0T-23" value="key" style="rounded=0;whiteSpace=wrap;html=1;fillColor=#d5e8d4;strokeColor=#82b366;" vertex="1" parent="dneLV3trufRBMjY-YP0T-22">
          <mxGeometry y="20" width="40" height="40" as="geometry" />
        </mxCell>
        <mxCell id="dneLV3trufRBMjY-YP0T-24" value="left" style="rounded=0;whiteSpace=wrap;html=1;fillColor=#f8cecc;strokeColor=#b85450;" vertex="1" parent="dneLV3trufRBMjY-YP0T-22">
          <mxGeometry x="40" y="20" width="40" height="40" as="geometry" />
        </mxCell>
        <mxCell id="dneLV3trufRBMjY-YP0T-25" value="right" style="rounded=0;whiteSpace=wrap;html=1;fillColor=#f8cecc;strokeColor=#b85450;" vertex="1" parent="dneLV3trufRBMjY-YP0T-22">
          <mxGeometry x="80" y="20" width="40" height="40" as="geometry" />
        </mxCell>
        <mxCell id="dneLV3trufRBMjY-YP0T-26" value="" style="group" vertex="1" connectable="0" parent="dneLV3trufRBMjY-YP0T-22">
          <mxGeometry x="30" width="60" height="60" as="geometry" />
        </mxCell>
        <mxCell id="dneLV3trufRBMjY-YP0T-27" value="&lt;div&gt;NODE&lt;/div&gt;&lt;div&gt;&lt;br&gt;&lt;/div&gt;" style="text;html=1;align=center;verticalAlign=middle;resizable=0;points=[];autosize=1;strokeColor=none;fillColor=none;" vertex="1" parent="dneLV3trufRBMjY-YP0T-26">
          <mxGeometry width="60" height="40" as="geometry" />
        </mxCell>
        <mxCell id="dneLV3trufRBMjY-YP0T-28" value="" style="group" vertex="1" connectable="0" parent="1">
          <mxGeometry x="210" y="590" width="120" height="60" as="geometry" />
        </mxCell>
        <mxCell id="dneLV3trufRBMjY-YP0T-29" value="key" style="rounded=0;whiteSpace=wrap;html=1;fillColor=#d5e8d4;strokeColor=#82b366;" vertex="1" parent="dneLV3trufRBMjY-YP0T-28">
          <mxGeometry y="20" width="40" height="40" as="geometry" />
        </mxCell>
        <mxCell id="dneLV3trufRBMjY-YP0T-30" value="left" style="rounded=0;whiteSpace=wrap;html=1;fillColor=#f8cecc;strokeColor=#b85450;" vertex="1" parent="dneLV3trufRBMjY-YP0T-28">
          <mxGeometry x="40" y="20" width="40" height="40" as="geometry" />
        </mxCell>
        <mxCell id="dneLV3trufRBMjY-YP0T-31" value="right" style="rounded=0;whiteSpace=wrap;html=1;fillColor=#f8cecc;strokeColor=#b85450;" vertex="1" parent="dneLV3trufRBMjY-YP0T-28">
          <mxGeometry x="80" y="20" width="40" height="40" as="geometry" />
        </mxCell>
        <mxCell id="dneLV3trufRBMjY-YP0T-32" value="" style="group" vertex="1" connectable="0" parent="dneLV3trufRBMjY-YP0T-28">
          <mxGeometry x="30" width="60" height="60" as="geometry" />
        </mxCell>
        <mxCell id="dneLV3trufRBMjY-YP0T-33" value="&lt;div&gt;NODE&lt;/div&gt;&lt;div&gt;&lt;br&gt;&lt;/div&gt;" style="text;html=1;align=center;verticalAlign=middle;resizable=0;points=[];autosize=1;strokeColor=none;fillColor=none;" vertex="1" parent="dneLV3trufRBMjY-YP0T-32">
          <mxGeometry width="60" height="40" as="geometry" />
        </mxCell>
        <mxCell id="dneLV3trufRBMjY-YP0T-34" value="" style="group" vertex="1" connectable="0" parent="1">
          <mxGeometry x="350" y="590" width="120" height="60" as="geometry" />
        </mxCell>
        <mxCell id="dneLV3trufRBMjY-YP0T-35" value="key" style="rounded=0;whiteSpace=wrap;html=1;fillColor=#d5e8d4;strokeColor=#82b366;" vertex="1" parent="dneLV3trufRBMjY-YP0T-34">
          <mxGeometry y="20" width="40" height="40" as="geometry" />
        </mxCell>
        <mxCell id="dneLV3trufRBMjY-YP0T-36" value="left" style="rounded=0;whiteSpace=wrap;html=1;fillColor=#f8cecc;strokeColor=#b85450;" vertex="1" parent="dneLV3trufRBMjY-YP0T-34">
          <mxGeometry x="40" y="20" width="40" height="40" as="geometry" />
        </mxCell>
        <mxCell id="dneLV3trufRBMjY-YP0T-37" value="right" style="rounded=0;whiteSpace=wrap;html=1;fillColor=#f8cecc;strokeColor=#b85450;" vertex="1" parent="dneLV3trufRBMjY-YP0T-34">
          <mxGeometry x="80" y="20" width="40" height="40" as="geometry" />
        </mxCell>
        <mxCell id="dneLV3trufRBMjY-YP0T-38" value="" style="group" vertex="1" connectable="0" parent="dneLV3trufRBMjY-YP0T-34">
          <mxGeometry x="30" width="60" height="60" as="geometry" />
        </mxCell>
        <mxCell id="dneLV3trufRBMjY-YP0T-39" value="&lt;div&gt;NODE&lt;/div&gt;&lt;div&gt;&lt;br&gt;&lt;/div&gt;" style="text;html=1;align=center;verticalAlign=middle;resizable=0;points=[];autosize=1;strokeColor=none;fillColor=none;" vertex="1" parent="dneLV3trufRBMjY-YP0T-38">
          <mxGeometry width="60" height="40" as="geometry" />
        </mxCell>
        <mxCell id="dneLV3trufRBMjY-YP0T-40" value="" style="group" vertex="1" connectable="0" parent="1">
          <mxGeometry x="550" y="590" width="120" height="60" as="geometry" />
        </mxCell>
        <mxCell id="dneLV3trufRBMjY-YP0T-41" value="key" style="rounded=0;whiteSpace=wrap;html=1;fillColor=#d5e8d4;strokeColor=#82b366;" vertex="1" parent="dneLV3trufRBMjY-YP0T-40">
          <mxGeometry y="20" width="40" height="40" as="geometry" />
        </mxCell>
        <mxCell id="dneLV3trufRBMjY-YP0T-42" value="left" style="rounded=0;whiteSpace=wrap;html=1;fillColor=#f8cecc;strokeColor=#b85450;" vertex="1" parent="dneLV3trufRBMjY-YP0T-40">
          <mxGeometry x="40" y="20" width="40" height="40" as="geometry" />
        </mxCell>
        <mxCell id="dneLV3trufRBMjY-YP0T-43" value="right" style="rounded=0;whiteSpace=wrap;html=1;fillColor=#f8cecc;strokeColor=#b85450;" vertex="1" parent="dneLV3trufRBMjY-YP0T-40">
          <mxGeometry x="80" y="20" width="40" height="40" as="geometry" />
        </mxCell>
        <mxCell id="dneLV3trufRBMjY-YP0T-44" value="" style="group" vertex="1" connectable="0" parent="dneLV3trufRBMjY-YP0T-40">
          <mxGeometry x="30" width="60" height="60" as="geometry" />
        </mxCell>
        <mxCell id="dneLV3trufRBMjY-YP0T-45" value="&lt;div&gt;NODE&lt;/div&gt;&lt;div&gt;&lt;br&gt;&lt;/div&gt;" style="text;html=1;align=center;verticalAlign=middle;resizable=0;points=[];autosize=1;strokeColor=none;fillColor=none;" vertex="1" parent="dneLV3trufRBMjY-YP0T-44">
          <mxGeometry width="60" height="40" as="geometry" />
        </mxCell>
        <mxCell id="dneLV3trufRBMjY-YP0T-49" value="&amp;lt;=" style="edgeStyle=none;rounded=0;orthogonalLoop=1;jettySize=auto;html=1;exitX=0.5;exitY=1;exitDx=0;exitDy=0;entryX=0.5;entryY=0;entryDx=0;entryDy=0;" edge="1" parent="1" source="dneLV3trufRBMjY-YP0T-2" target="dneLV3trufRBMjY-YP0T-17">
          <mxGeometry relative="1" as="geometry" />
        </mxCell>
        <mxCell id="dneLV3trufRBMjY-YP0T-50" value="&amp;gt;" style="edgeStyle=none;rounded=0;orthogonalLoop=1;jettySize=auto;html=1;exitX=0.5;exitY=1;exitDx=0;exitDy=0;entryX=0.5;entryY=0;entryDx=0;entryDy=0;" edge="1" parent="1" source="dneLV3trufRBMjY-YP0T-3" target="dneLV3trufRBMjY-YP0T-23">
          <mxGeometry relative="1" as="geometry" />
        </mxCell>
        <mxCell id="dneLV3trufRBMjY-YP0T-51" value="&amp;gt;" style="edgeStyle=none;rounded=0;orthogonalLoop=1;jettySize=auto;html=1;exitX=0.5;exitY=1;exitDx=0;exitDy=0;entryX=0.5;entryY=0;entryDx=0;entryDy=0;" edge="1" parent="1" source="dneLV3trufRBMjY-YP0T-25" target="dneLV3trufRBMjY-YP0T-41">
          <mxGeometry relative="1" as="geometry" />
        </mxCell>
        <mxCell id="dneLV3trufRBMjY-YP0T-53" value="&amp;gt;" style="edgeStyle=none;rounded=0;orthogonalLoop=1;jettySize=auto;html=1;exitX=0.5;exitY=1;exitDx=0;exitDy=0;entryX=0.5;entryY=0;entryDx=0;entryDy=0;" edge="1" parent="1" source="dneLV3trufRBMjY-YP0T-19" target="dneLV3trufRBMjY-YP0T-35">
          <mxGeometry relative="1" as="geometry" />
        </mxCell>
        <mxCell id="dneLV3trufRBMjY-YP0T-54" value="&amp;lt;=" style="edgeStyle=none;rounded=0;orthogonalLoop=1;jettySize=auto;html=1;exitX=0.5;exitY=1;exitDx=0;exitDy=0;entryX=0.5;entryY=0;entryDx=0;entryDy=0;" edge="1" parent="1" source="dneLV3trufRBMjY-YP0T-18" target="dneLV3trufRBMjY-YP0T-29">
          <mxGeometry relative="1" as="geometry" />
        </mxCell>
        <mxCell id="dneLV3trufRBMjY-YP0T-56" value="NULL" style="ellipse;whiteSpace=wrap;html=1;aspect=fixed;" vertex="1" parent="1">
          <mxGeometry x="490" y="610" width="40" height="40" as="geometry" />
        </mxCell>
        <mxCell id="dneLV3trufRBMjY-YP0T-57" value="&amp;lt;=" style="edgeStyle=none;rounded=0;orthogonalLoop=1;jettySize=auto;html=1;exitX=0.5;exitY=1;exitDx=0;exitDy=0;entryX=0.5;entryY=0;entryDx=0;entryDy=0;" edge="1" parent="1" source="dneLV3trufRBMjY-YP0T-24" target="dneLV3trufRBMjY-YP0T-56">
          <mxGeometry relative="1" as="geometry" />
        </mxCell>
        <mxCell id="dneLV3trufRBMjY-YP0T-58" style="edgeStyle=none;rounded=0;orthogonalLoop=1;jettySize=auto;html=1;exitX=0.5;exitY=1;exitDx=0;exitDy=0;entryX=0.5;entryY=0;entryDx=0;entryDy=0;" edge="1" parent="1" source="dneLV3trufRBMjY-YP0T-4" target="dneLV3trufRBMjY-YP0T-1">
          <mxGeometry relative="1" as="geometry" />
        </mxCell>
        <mxCell id="dneLV3trufRBMjY-YP0T-59" value="NULL" style="ellipse;whiteSpace=wrap;html=1;aspect=fixed;" vertex="1" parent="1">
          <mxGeometry x="240" y="690" width="40" height="40" as="geometry" />
        </mxCell>
        <mxCell id="dneLV3trufRBMjY-YP0T-60" value="NULL" style="ellipse;whiteSpace=wrap;html=1;aspect=fixed;" vertex="1" parent="1">
          <mxGeometry x="300" y="690" width="40" height="40" as="geometry" />
        </mxCell>
        <mxCell id="dneLV3trufRBMjY-YP0T-61" value="NULL" style="ellipse;whiteSpace=wrap;html=1;aspect=fixed;" vertex="1" parent="1">
          <mxGeometry x="385" y="690" width="40" height="40" as="geometry" />
        </mxCell>
        <mxCell id="dneLV3trufRBMjY-YP0T-62" value="NULL" style="ellipse;whiteSpace=wrap;html=1;aspect=fixed;" vertex="1" parent="1">
          <mxGeometry x="440" y="690" width="40" height="40" as="geometry" />
        </mxCell>
        <mxCell id="dneLV3trufRBMjY-YP0T-64" value="NULL" style="ellipse;whiteSpace=wrap;html=1;aspect=fixed;" vertex="1" parent="1">
          <mxGeometry x="580" y="690" width="40" height="40" as="geometry" />
        </mxCell>
        <mxCell id="dneLV3trufRBMjY-YP0T-65" value="NULL" style="ellipse;whiteSpace=wrap;html=1;aspect=fixed;" vertex="1" parent="1">
          <mxGeometry x="635" y="690" width="40" height="40" as="geometry" />
        </mxCell>
        <mxCell id="dneLV3trufRBMjY-YP0T-66" value="&amp;lt;=" style="edgeStyle=none;rounded=0;orthogonalLoop=1;jettySize=auto;html=1;exitX=0.5;exitY=1;exitDx=0;exitDy=0;entryX=0.5;entryY=0;entryDx=0;entryDy=0;" edge="1" parent="1" source="dneLV3trufRBMjY-YP0T-42" target="dneLV3trufRBMjY-YP0T-64">
          <mxGeometry relative="1" as="geometry" />
        </mxCell>
        <mxCell id="dneLV3trufRBMjY-YP0T-67" value="&amp;gt;" style="edgeStyle=none;rounded=0;orthogonalLoop=1;jettySize=auto;html=1;exitX=0.5;exitY=1;exitDx=0;exitDy=0;entryX=0.5;entryY=0;entryDx=0;entryDy=0;" edge="1" parent="1" source="dneLV3trufRBMjY-YP0T-43" target="dneLV3trufRBMjY-YP0T-65">
          <mxGeometry relative="1" as="geometry" />
        </mxCell>
        <mxCell id="dneLV3trufRBMjY-YP0T-68" value="&amp;gt;" style="edgeStyle=none;rounded=0;orthogonalLoop=1;jettySize=auto;html=1;exitX=0.5;exitY=1;exitDx=0;exitDy=0;entryX=0.5;entryY=0;entryDx=0;entryDy=0;" edge="1" parent="1" source="dneLV3trufRBMjY-YP0T-37" target="dneLV3trufRBMjY-YP0T-62">
          <mxGeometry relative="1" as="geometry">
            <Array as="points">
              <mxPoint x="460" y="660" />
            </Array>
          </mxGeometry>
        </mxCell>
        <mxCell id="dneLV3trufRBMjY-YP0T-69" value="&amp;lt;=" style="edgeStyle=none;rounded=0;orthogonalLoop=1;jettySize=auto;html=1;exitX=0.5;exitY=1;exitDx=0;exitDy=0;entryX=0.5;entryY=0;entryDx=0;entryDy=0;" edge="1" parent="1" source="dneLV3trufRBMjY-YP0T-36" target="dneLV3trufRBMjY-YP0T-61">
          <mxGeometry relative="1" as="geometry" />
        </mxCell>
        <mxCell id="dneLV3trufRBMjY-YP0T-70" value="&amp;gt;" style="edgeStyle=none;rounded=0;orthogonalLoop=1;jettySize=auto;html=1;entryX=0.5;entryY=0;entryDx=0;entryDy=0;" edge="1" parent="1" source="dneLV3trufRBMjY-YP0T-31" target="dneLV3trufRBMjY-YP0T-60">
          <mxGeometry relative="1" as="geometry" />
        </mxCell>
        <mxCell id="dneLV3trufRBMjY-YP0T-71" value="&amp;lt;=" style="edgeStyle=none;rounded=0;orthogonalLoop=1;jettySize=auto;html=1;exitX=0.5;exitY=1;exitDx=0;exitDy=0;entryX=0.5;entryY=0;entryDx=0;entryDy=0;" edge="1" parent="1" source="dneLV3trufRBMjY-YP0T-30" target="dneLV3trufRBMjY-YP0T-59">
          <mxGeometry relative="1" as="geometry" />
        </mxCell>
      </root>
    </mxGraphModel>
  </diagram>
</mxfile>
